<svg xmlns="http://www.w3.org/2000/svg" version="1.1" xmlns:xlink="http://www.w3.org/1999/xlink" xmlns:svgjs="http://svgjs.com/svgjs" height="46.66999816894531" width="290.70001220703125"><defs id="SvgjsDefs1089"></defs><g id="SvgjsG1090" rel="mainfill" name="main_text" xmlns:name="main_text" transform="translate(81.34999996423721,-193.3300018310547)" fill="#ffffff"><path d="M1.37 193.33L1.56 193.33Q2.02 193.33 2.28 193.98Q2.31 194.18 2.31 194.28L2.31 234.99L2.31 234.99Q2.31 234.96 9.73 216.93Q17.48 198.18 19.27 193.76Q19.59 193.33 19.92 193.33L20.11 193.33Q20.50 193.33 20.79 193.85Q20.83 193.98 20.83 194.05L20.83 239.19Q20.83 239.67 20.18 239.93Q20.18 239.93 20.01 239.93Q19.20 239.80 19.20 239.15Q19.17 239.15 19.17 238.96L19.17 198.34L19.17 198.34Q19.17 198.38 11.75 216.41Q11.00 218.16 3.12 237.33Q2.28 239.38 2.12 239.71Q1.82 240 1.56 240L1.37 240Q0.98 240 0.68 239.48Q0.65 239.35 0.65 239.28L0.65 194.05Q0.65 193.66 1.17 193.37Q1.30 193.33 1.37 193.33ZM22.85 193.33L41.79 193.33Q42.18 193.33 42.44 193.85Q42.47 193.98 42.47 194.05L42.47 239.28Q42.47 239.67 41.95 239.97Q41.82 240 41.79 240L41.56 240Q41.10 240 40.84 239.35Q40.84 239.15 40.84 239.06L40.84 194.99L23.79 194.99L23.79 238.96Q23.79 239.64 23.27 239.87Q23.07 239.93 22.94 239.93Q22.39 239.93 22.16 239.32Q22.13 239.25 22.13 239.19L22.13 194.05Q22.13 193.66 22.65 193.37Q22.78 193.33 22.85 193.33ZM63.00 193.33L81.68 193.33Q82.17 193.33 82.43 193.98Q82.43 194.05 82.43 194.15Q82.43 194.73 81.78 194.96Q81.55 194.99 81.39 194.99L63.95 194.99L63.95 214.81Q66.32 213.84 69.87 213.84L71.24 213.84Q74.23 213.84 77.84 216.93Q79.50 218.55 79.86 219.17Q80.71 220.31 81.29 221.58Q82.46 224.22 82.46 226.49L82.46 227.05Q82.46 230.73 80.25 234.40Q79.70 235.38 78.20 236.97Q75.01 240 71.82 240L70.49 240Q66.45 240 63.95 238.80L63.95 238.86Q63.95 239.67 63.43 239.84Q63.30 239.90 63.13 239.90L63.07 239.90Q62.52 239.90 62.29 239.25L62.29 194.05Q62.29 193.66 62.81 193.37Q62.94 193.33 63.00 193.33M63.95 216.57L63.95 236.91Q66.19 238.34 70.55 238.34L71.79 238.34Q74.69 238.34 77.55 235.28Q79.01 233.56 79.67 232.03Q80.80 229.39 80.80 227.02L80.80 226.56Q80.80 222.98 78.01 219.47Q76.87 218.16 76.09 217.61Q73.32 215.46 71.17 215.46L69.93 215.46Q66.29 215.46 63.98 216.57L63.95 216.57ZM93.27 206.68L93.92 206.68Q97.47 206.68 100.07 208.95Q103.49 212.21 103.49 218.59L103.49 236.97Q103.49 237.85 104.24 238.89Q104.30 239.06 104.30 239.12L104.30 239.32Q104.30 239.71 103.78 239.97Q103.65 240 103.62 240L103.42 240Q102.80 240 102.15 238.31Q99.16 239.97 94.47 239.97Q89.66 239.97 86.53 236.71Q83.86 233.78 83.86 229.39L83.86 229.13Q83.86 224.15 87.93 221.06Q91.22 218.78 95.09 218.78Q99.00 218.78 101.89 220.08L101.89 218.62Q101.83 211.00 97.04 208.89Q95.45 208.27 93.89 208.27L93.30 208.27Q88.61 208.27 86.14 210.42Q85.39 211.20 85.17 211.56Q84.90 211.88 84.55 211.88Q83.99 211.88 83.80 211.26Q83.77 211.23 83.77 211.17L83.77 210.97Q83.77 210.55 85.03 209.28Q86.43 208.04 88.00 207.52Q90.37 206.68 93.27 206.68M85.46 229.10L85.46 229.42Q85.46 233.46 88.03 235.96Q90.60 238.37 94.50 238.37Q98.90 238.37 101.60 236.78Q101.89 236.65 101.89 236.58L101.89 221.84Q100.30 221.09 98.70 220.73Q97.17 220.38 95.09 220.38Q91.28 220.38 88.29 222.78Q85.46 225.29 85.46 229.10ZM124.87 193.33L125.06 193.33Q125.49 193.33 125.75 193.89Q125.78 193.95 125.78 194.05L125.78 194.24Q125.65 194.99 124.77 196.13Q123.76 197.11 122.85 197.56Q121.94 198.02 120.99 198.28Q120.12 198.57 117.61 198.70Q116.24 198.93 115.46 199.19Q114.10 199.58 112.73 200.33Q111.92 200.79 110.94 201.66Q110.19 202.45 109.54 203.42Q108.66 204.69 108.17 206.38Q107.62 208.76 107.62 209.64Q107.46 211.07 107.46 211.75L107.46 211.75L107.46 211.75Q107.78 210.94 108.56 209.74Q111.33 205.83 115.63 205.83L115.69 205.83Q120.31 205.83 123.08 210.22Q125.75 214.71 125.75 222.62L125.75 223.21Q125.75 231.60 122.78 236.09Q121.03 238.70 118.13 239.64Q116.89 240 115.85 240L115.53 240Q111.79 240 109.12 236.84Q105.60 232.42 105.60 223.05L105.60 220.21Q105.60 212.05 106.12 208.01Q106.42 206.45 106.81 205.21Q107.23 204.04 107.95 202.87Q108.86 201.44 109.67 200.59Q111.49 198.90 113.64 198.08Q114.71 197.63 115.98 197.34Q117.61 197.01 118.78 197.01Q119.92 196.85 120.57 196.69Q123.01 195.94 123.89 194.54Q124.02 194.31 124.25 193.72Q124.54 193.33 124.87 193.33M107.23 222.88L107.23 222.95Q107.23 234.11 112.11 237.36Q113.74 238.37 115.56 238.37L115.76 238.37Q119.56 238.37 121.84 234.47Q124.09 230.33 124.09 223.14L124.09 222.69Q124.09 213.84 120.80 209.83Q118.68 207.46 115.72 207.46L115.69 207.46Q110.81 207.46 108.60 213.31Q107.23 217.09 107.23 222.88ZM136.71 206.68L137.04 206.68Q139.87 206.68 142.21 208.66Q143.32 209.70 143.81 210.48Q144.75 211.92 145.34 213.64Q146.70 217.64 146.70 222.82L146.70 223.44Q146.70 223.79 146.22 224.09Q146.09 224.15 145.66 224.15L128.68 224.15Q128.68 228.12 129.72 231.83Q130.27 233.62 130.95 234.79Q133.20 238.41 136.78 238.41L137.10 238.41Q139.38 238.41 141.40 237.10Q143.42 235.77 144.39 232.94Q144.59 232.09 144.75 231.93Q145.01 231.70 145.37 231.70Q145.92 231.70 146.12 232.35Q146.12 232.42 146.15 232.52Q146.12 233.07 145.43 234.73Q145.01 235.57 144.36 236.52Q143.81 237.20 143.06 237.82Q141.46 239.22 139.32 239.71Q138.21 240 137.10 240L136.71 240Q133.91 240 131.54 238.01Q129.29 236.06 128.09 231.99Q127.08 228.28 127.08 223.86L127.08 222.82Q127.08 216.18 129.20 211.82Q129.75 210.65 130.92 209.25Q133.46 206.68 136.71 206.68M128.68 222.52L145.08 222.52Q145.08 218.55 144.07 214.84Q143.51 213.18 143.09 212.44Q142.83 211.88 142.15 210.91Q140.03 208.27 137.01 208.27L136.75 208.27Q133.52 208.27 131.38 211.26Q130.73 212.21 130.24 213.31Q129.85 214.32 129.39 215.95Q128.68 219.34 128.68 222.52ZM148.69 206.68L148.88 206.68Q149.31 206.68 149.57 207.26Q149.60 207.42 149.60 207.65L149.60 222.52L165.87 222.52L165.87 207.65Q165.87 206.97 166.33 206.74Q166.49 206.68 166.59 206.68L166.78 206.68Q167.17 206.68 167.43 207.20Q167.47 207.33 167.47 207.36L167.47 239.32Q167.47 239.71 166.95 239.97Q166.85 240 166.78 240L166.59 240Q166.16 240 165.90 239.41Q165.87 239.25 165.87 239.02L165.87 224.15L149.60 224.15L149.60 239.02Q149.60 239.71 149.14 239.93Q148.98 240 148.88 240L148.69 240Q148.30 240 148.04 239.48Q148.01 239.35 148.01 239.32L148.01 207.36Q148.01 206.97 148.53 206.71Q148.66 206.68 148.69 206.68ZM187.51 206.68L187.74 206.68Q188.13 206.68 188.39 207.20Q188.42 207.33 188.42 207.36L188.42 207.55Q188.42 207.91 187.84 208.34Q172.09 221.09 172.09 221.13Q172.93 222.04 182.24 232.16Q188.07 238.47 188.29 238.80Q188.42 238.99 188.42 239.12L188.42 239.32Q188.42 239.71 187.90 239.97Q187.77 240 187.74 240L187.51 240Q187.19 240 186.60 239.28Q186.21 238.86 178.73 230.69L170.85 222.13Q170.40 222.49 170.36 222.49L170.36 238.99Q170.36 239.74 169.87 239.93Q169.71 240 169.65 240L169.45 240Q169.06 240 168.80 239.48Q168.77 239.35 168.77 239.32L168.77 207.46Q168.77 206.94 169.39 206.74L169.58 206.71Q170.10 206.71 170.33 207.29Q170.36 207.49 170.36 207.75L170.36 220.44Q184.71 208.82 185.66 208.04Q187.09 206.87 187.32 206.74Q187.48 206.68 187.51 206.68ZM199.36 206.68L199.68 206.68Q202.52 206.68 204.86 208.66Q205.96 209.70 206.45 210.48Q207.40 211.92 207.98 213.64Q209.35 217.64 209.35 222.82L209.35 223.86Q209.35 230.50 207.23 234.86Q206.68 236.03 205.48 237.43Q202.94 240 199.68 240L199.36 240Q196.53 240 194.18 238.01Q191.81 235.96 190.60 231.51Q189.73 227.93 189.73 223.86L189.73 222.82Q189.73 215.79 192.07 211.36Q192.59 210.42 193.57 209.28Q196.10 206.68 199.36 206.68M191.32 222.85L191.32 223.83Q191.32 230.86 193.70 234.92Q194.12 235.64 194.93 236.52Q196.89 238.41 199.39 238.41L199.65 238.41Q202.61 238.41 204.70 235.87Q205.38 234.99 205.77 234.24Q207.72 230.17 207.72 223.83L207.72 222.85Q207.72 215.82 205.38 211.75Q204.99 211.07 204.14 210.16Q202.16 208.27 199.65 208.27L199.39 208.27Q196.46 208.27 194.35 210.81Q193.70 211.69 193.31 212.44Q191.32 216.50 191.32 222.85Z" fill="#ffffff" style="fill: rgb(255, 255, 255);"></path></g><g id="SvgjsG1091" rel="mainfill" name="symbol" xmlns:name="symbol_mainfill" transform="translate(-4.597240588291661,-13.467567447940898) scale(0.7533625116315859)" fill="#ffffff"><path d="M32.517,23.508l-9.49,0.992c1.838-0.073,3.573,1.561,3.987,3.853c0.415,2.292-0.64,4.431-2.387,5.004l9.238-2.393  c1.66-0.3,2.703-2.213,2.331-4.271C35.824,24.634,34.177,23.207,32.517,23.508z" fill="#ffffff" style="fill: rgb(255, 255, 255);"></path><path d="M41.146,22.664l-7.824,0.817c1.515-0.06,2.945,1.286,3.287,3.177c0.342,1.889-0.528,3.653-1.968,4.125l3.218-1.75  l2.728,0.208l1.67-0.431c1.368-0.248,2.229-1.824,1.922-3.522C43.872,23.591,42.515,22.417,41.146,22.664z" fill="#ffffff" style="fill: rgb(255, 255, 255);"></path><path d="M48.104,21.972l-6.343,0.664c1.229-0.049,2.388,1.042,2.665,2.575c0.277,1.532-0.427,2.961-1.595,3.344l6.173-1.599  c1.111-0.201,1.808-1.479,1.559-2.855C50.315,22.725,49.215,21.771,48.104,21.972z" fill="#ffffff" style="fill: rgb(255, 255, 255);"></path><path d="M17.661,44.638c-7.246,1.584-11.607,9.778-9.744,18.297c1.864,8.521,9.248,14.14,16.493,12.554  c7.246-1.585,11.608-9.774,9.744-18.295C32.291,48.675,24.906,43.052,17.661,44.638z M22.176,47.449  c0.512-0.113,1.018,0.213,1.13,0.725c0.112,0.513-0.212,1.017-0.724,1.13c-0.512,0.111-1.018-0.213-1.13-0.725  C21.339,48.066,21.664,47.559,22.176,47.449z M18.251,47.335c0.512-0.113,1.018,0.213,1.13,0.725  c0.112,0.513-0.212,1.017-0.724,1.13c-0.512,0.111-1.019-0.213-1.13-0.725C17.415,47.953,17.739,47.449,18.251,47.335z M14.26,49.18  c0.512-0.11,1.018,0.213,1.13,0.726c0.112,0.512-0.211,1.016-0.724,1.13c-0.512,0.11-1.018-0.213-1.13-0.726  C13.424,49.797,13.748,49.293,14.26,49.18z M12.049,52.58c0.512-0.113,1.018,0.21,1.129,0.723c0.112,0.512-0.212,1.02-0.725,1.13  c-0.512,0.113-1.018-0.211-1.13-0.723C11.212,53.197,11.536,52.69,12.049,52.58z M10.557,56.714c0.513-0.113,1.018,0.21,1.131,0.723  c0.112,0.512-0.212,1.019-0.725,1.13c-0.512,0.113-1.018-0.211-1.129-0.723C9.72,57.331,10.044,56.824,10.557,56.714z M9.881,62.503  c-0.112-0.513,0.212-1.017,0.725-1.13c0.512-0.11,1.018,0.213,1.13,0.726c0.112,0.512-0.212,1.019-0.724,1.13  C10.499,63.342,9.993,63.015,9.881,62.503z M12.946,67.634c-0.512,0.113-1.018-0.213-1.13-0.726  c-0.112-0.512,0.212-1.016,0.725-1.129c0.513-0.111,1.018,0.213,1.13,0.725C13.782,67.017,13.459,67.521,12.946,67.634z   M15.664,71.172c-0.513,0.113-1.018-0.211-1.131-0.723c-0.112-0.513,0.212-1.02,0.725-1.13c0.513-0.113,1.018,0.21,1.13,0.723  C16.5,70.555,16.176,71.062,15.664,71.172z M19.404,72.692c-0.512,0.113-1.018-0.21-1.13-0.723c-0.112-0.513,0.212-1.02,0.724-1.13  c0.512-0.113,1.019,0.211,1.13,0.723C20.241,72.075,19.917,72.582,19.404,72.692z M23.857,72.957  c-0.512,0.113-1.019-0.211-1.13-0.723c-0.112-0.513,0.212-1.02,0.725-1.13c0.512-0.113,1.018,0.21,1.13,0.723  C24.693,72.339,24.369,72.846,23.857,72.957z M27.434,71.479c-0.513,0.113-1.019-0.214-1.13-0.726  c-0.112-0.513,0.212-1.017,0.725-1.13c0.512-0.11,1.018,0.213,1.13,0.726C28.27,70.861,27.946,71.368,27.434,71.479z M23.009,69.082  c-4.236,0.928-8.554-2.359-9.644-7.34c-1.09-4.982,1.46-9.771,5.697-10.699c4.237-0.925,8.554,2.362,9.645,7.343  C29.796,63.365,27.245,68.157,23.009,69.082z M30.291,67.974c-0.512,0.11-1.019-0.213-1.13-0.726  c-0.112-0.512,0.212-1.019,0.725-1.13c0.513-0.112,1.018,0.211,1.13,0.723C31.127,67.354,30.804,67.86,30.291,67.974z   M26.565,50.943c-0.512,0.11-1.019-0.213-1.13-0.726s0.212-1.017,0.725-1.13c0.512-0.11,1.018,0.213,1.13,0.726  S27.078,50.83,26.565,50.943z M28.823,53.688c-0.112-0.513,0.212-1.02,0.725-1.13c0.512-0.113,1.018,0.21,1.129,0.723  c0.112,0.512-0.211,1.019-0.724,1.132C29.441,54.524,28.936,54.2,28.823,53.688z M32.305,63.397c-0.512,0.113-1.018-0.21-1.13-0.722  c-0.112-0.513,0.212-1.02,0.725-1.133c0.513-0.11,1.018,0.213,1.13,0.726C33.141,62.78,32.817,63.287,32.305,63.397z M31.856,58.668  c-0.513,0.111-1.018-0.213-1.13-0.725c-0.113-0.513,0.211-1.017,0.724-1.13c0.512-0.113,1.018,0.213,1.13,0.726  C32.692,58.051,32.368,58.555,31.856,58.668z" fill="#ffffff" style="fill: rgb(255, 255, 255);"></path><path d="M59.13,65.245l-31.863,9.513c6.019-2.225,9.416-9.802,7.675-17.739c-1.739-7.925-7.979-13.394-14.371-12.91l32.912-4.667  c0.18-0.041,0.359-0.069,0.553-0.083c5.563-0.87,11.169,3.81,12.674,10.712c0.124,0.553,0.221,1.119,0.276,1.672  C67.717,58.231,64.418,64.086,59.13,65.245z" fill="#ffffff" style="fill: rgb(255, 255, 255);"></path><path d="M66.986,51.744l-7.553-2.058c-3.947-0.76-6.378-5.357-5.426-10.244c0-0.028,0.015-0.055,0.028-0.083  c5.563-0.87,11.169,3.81,12.674,10.712C66.834,50.625,66.931,51.191,66.986,51.744z" fill="#ffffff" style="fill: rgb(255, 255, 255);"></path><path d="M39.294,44.28l18.333,4.988c-3.464-1.189-5.51-5.471-4.63-10.024c0.881-4.553,4.376-7.766,8.032-7.574l-18.872-2.204  c-3.298-0.637-6.612,2.163-7.401,6.253C33.964,39.811,35.996,43.644,39.294,44.28z" fill="#ffffff" style="fill: rgb(255, 255, 255);"></path><path d="M94.722,43.943c-1.299-5.95-6.255-9.926-11.044-8.877l-1.836,0.262l-25.693,3.631c5.343-0.4,10.575,4.169,12.024,10.794  c0.181,0.817,0.289,1.618,0.332,2.402c0.386,5.703-2.333,10.783-6.751,12.412l26.632-7.938  C93.188,55.567,96.02,49.894,94.722,43.943z" fill="#ffffff" style="fill: rgb(255, 255, 255);"></path><path d="M22.667,39.638l15.115,4.113c-2.856-0.979-4.542-4.51-3.817-8.265c0.706-3.649,3.449-6.255,6.371-6.25  c0.083,0,0.168,0.002,0.251,0.006l-15.559-1.818c-2.72-0.525-5.452,1.782-6.103,5.156C18.272,35.953,19.948,39.113,22.667,39.638z" fill="#ffffff" style="fill: rgb(255, 255, 255);"></path><path d="M9.249,35.914l12.253,3.333c-2.315-0.793-3.682-3.654-3.094-6.699c0.589-3.043,2.925-5.19,5.368-5.062l-12.613-1.474  c-2.205-0.425-4.419,1.445-4.946,4.181C5.687,32.927,7.044,35.488,9.249,35.914z" fill="#ffffff" style="fill: rgb(255, 255, 255);"></path><path d="M22.216,24.634L10.86,25.82c2.199-0.087,4.276,1.868,4.772,4.61c0.495,2.742-0.765,5.301-2.855,5.987l4.73-1.226l1.8-8.113  l4.078,0.416l-2.84,6.91l3.283-0.849c1.987-0.358,3.235-2.648,2.789-5.111C26.172,25.98,24.201,24.274,22.216,24.634z" fill="#ffffff" style="fill: rgb(255, 255, 255);"></path><path d="M59.247,49.49l5.02,1.367L54.92,39.248l8.001-1.245l7.897,14.637l10.189,2.771c-4.109-1.407-6.536-6.49-5.495-11.896  c1.046-5.405,5.196-9.219,9.537-8.991l-22.402-2.617c-3.916-0.756-7.85,2.567-8.787,7.422C52.921,44.186,55.333,48.735,59.247,49.49  z" fill="#ffffff" style="fill: rgb(255, 255, 255);"></path></g></svg>